<?xml version="1.0" standalone="no"?><!DOCTYPE svg PUBLIC "-//W3C//DTD SVG 1.1//EN" "http://www.w3.org/Graphics/SVG/1.1/DTD/svg11.dtd"><svg class="icon" width="200px" height="200.00px" viewBox="0 0 1024 1024" version="1.1" xmlns="http://www.w3.org/2000/svg"><path fill="#000000" d="M874.666667 712.533333H390.4c-19.2 0-36.266667-12.8-42.666667-29.866666v-2.133334l-100.266666-379.733333c-2.133333-8.533333 2.133333-17.066667 8.533333-25.6 6.4-6.4 14.933333-10.666667 23.466667-10.666667h640c19.2 0 36.266667 8.533333 46.933333 21.333334s17.066667 32 14.933333 51.2l-42.666666 320c-4.266667 32-32 55.466667-64 55.466666z m-486.4-44.8l2.133333 2.133334H874.666667c10.666667 0 19.2-8.533333 21.333333-17.066667l42.666667-320c0-6.4 0-12.8-4.266667-17.066667-4.266667-4.266667-8.533333-6.4-14.933333-6.4H292.266667l96 358.4z"  /><path fill="#000000" d="M505.6 631.466667c-10.666667 0-19.2-6.4-21.333333-17.066667l-46.933334-217.6c-2.133333-10.666667 4.266667-23.466667 17.066667-25.6 10.666667-2.133333 23.466667 4.266667 25.6 17.066667l46.933333 217.6c2.133333 10.666667-4.266667 23.466667-17.066666 25.6h-4.266667zM635.733333 633.6c-12.8 0-21.333333-8.533333-21.333333-21.333333V390.4c0-12.8 8.533333-21.333333 21.333333-21.333333s21.333333 8.533333 21.333334 21.333333v224c0 10.666667-8.533333 19.2-21.333334 19.2zM768 631.466667h-4.266667c-10.666667-2.133333-19.2-12.8-17.066666-25.6l44.8-217.6c2.133333-10.666667 12.8-19.2 25.6-17.066667 10.666667 2.133333 19.2 12.8 17.066666 25.6L789.333333 614.4c-4.266667 10.666667-12.8 17.066667-21.333333 17.066667zM358.4 906.666667c-44.8 0-83.2-36.266667-83.2-83.2 0-44.8 36.266667-83.2 83.2-83.2s83.2 36.266667 83.2 83.2c0 44.8-36.266667 83.2-83.2 83.2z m0-123.733334c-21.333333 0-40.533333 17.066667-40.533333 40.533334s17.066667 40.533333 40.533333 40.533333 40.533333-17.066667 40.533333-40.533333-19.2-40.533333-40.533333-40.533334zM874.666667 906.666667c-44.8 0-83.2-36.266667-83.2-83.2 0-44.8 36.266667-83.2 83.2-83.2s83.2 36.266667 83.2 83.2c0 44.8-38.4 83.2-83.2 83.2z m0-123.733334c-21.333333 0-40.533333 17.066667-40.533334 40.533334s17.066667 40.533333 40.533334 40.533333 40.533333-17.066667 40.533333-40.533333-19.2-40.533333-40.533333-40.533334zM264.533333 313.6c-6.4 0-10.666667-2.133333-14.933333-6.4L96 155.733333c-8.533333-8.533333-8.533333-21.333333 0-29.866666s21.333333-8.533333 29.866667 0L277.333333 277.333333c8.533333 8.533333 8.533333 21.333333 0 29.866667-2.133333 4.266667-8.533333 6.4-12.8 6.4z"  /><path fill="#000000" d="M34.133333 160c-10.666667 0-21.333333-8.533333-21.333333-21.333333s8.533333-21.333333 21.333333-21.333334L106.666667 115.2c12.8 0 21.333333 8.533333 21.333333 21.333333s-8.533333 21.333333-21.333333 21.333334l-72.533334 2.133333z"  /></svg>