<?xml version="1.0" standalone="no"?><!DOCTYPE svg PUBLIC "-//W3C//DTD SVG 1.1//EN" "http://www.w3.org/Graphics/SVG/1.1/DTD/svg11.dtd"><svg class="icon" width="200px" height="199.61px" viewBox="0 0 1026 1024" version="1.1" xmlns="http://www.w3.org/2000/svg"><path d="M317.952 311.808l61.44 293.376 480.768-13.312 38.4-274.432z" fill="#17E6A1" /><path d="M901.12 250.88L266.752 244.736l-25.088-118.784c-3.584-15.872-17.408-27.136-33.792-26.624l-80.384 3.072c-18.432 0.512-33.28 15.872-32.256 34.304 0.512 18.432 15.872 32.768 34.304 32.256l52.224-1.536 98.304 460.288 4.096 18.432c0 0.512 0 0.512 0.512 1.024l19.456 91.648c-43.52 11.776-75.776 51.2-75.776 98.304 0 56.32 45.568 101.888 101.888 101.888 56.32 0 101.888-45.568 101.888-101.888 0-12.288-2.56-24.064-6.144-35.328l262.656-0.512c-4.096 11.264-6.656 23.04-6.656 35.84 0 56.32 45.568 101.888 101.888 101.888 56.32 0 101.888-45.568 101.888-101.888 0-41.472-16.896-65.536-31.232-77.824-15.36-13.312-35.328-21.504-58.368-23.552-3.072-1.024-6.144-1.024-9.216-1.024l-416.768 0.512-13.312-63.488 496.64-13.824c16.384-0.512 30.208-12.8 32.256-28.672l47.104-339.968c0-1.536 0.512-3.072 0.512-4.096 1.024-18.944-13.824-34.304-32.256-34.304zM330.24 872.448c-19.456 0-35.328-15.872-35.328-35.328s15.872-35.328 35.328-35.328c19.456 0 35.328 15.872 35.328 35.328 0 19.456-15.872 35.328-35.328 35.328z m454.144 0c-19.456 0-35.328-15.872-35.328-35.328 0-19.456 15.872-35.328 35.328-35.328 29.184 0 35.328 13.312 35.328 35.328 0 19.968-15.872 35.328-35.328 35.328z m39.936-280.576l-480.768 13.312-61.44-293.376L862.72 317.44l-38.4 274.432z" fill="#333333" /></svg>